<svg xmlns="http://www.w3.org/2000/svg" xmlns:xlink="http://www.w3.org/1999/xlink" x="0px" y="0px" viewBox="-533.2 272.5 300 100" style="enable-background:new -533.2 272.5 300 100;" xml:space="preserve">
<g fill="#fff">
<path class="st0" d="M-483.7,332.5c0-3.2-1.3-5.9-3.8-7.9c-2.5-2.1-6.9-4.1-13-5.9c-6.7-1.8-11.8-4.1-15.2-6.9
			c-3.5-2.7-5.2-6.5-5.2-11.2c0-4.8,1.9-8.7,5.8-11.8c3.9-3.1,8.9-4.6,14.9-4.6c6.4,0,11.5,1.7,15.3,5.2c3.9,3.5,5.7,7.9,5.6,13.3
			l-0.1,0.3h-4.8c0-4.1-1.5-7.5-4.5-10.3c-3-2.7-6.9-4.1-11.6-4.1c-4.9,0-8.7,1.2-11.5,3.5c-2.8,2.3-4.1,5.1-4.1,8.5
			c0,3.2,1.3,5.8,3.8,7.8c2.5,2,6.9,4,13.3,5.7c6.6,1.9,11.6,4.3,15.1,7.1c3.5,2.8,5.2,6.5,5.2,11.2c0,4.9-2,8.8-6.1,11.8
			c-4.1,3-9.2,4.4-15.3,4.4c-6.2,0-11.5-1.6-16.1-4.7c-4.6-3.1-6.8-7.7-6.7-13.7l0.1-0.3h4.8c0,4.8,1.8,8.4,5.5,10.8
			c3.6,2.4,7.8,3.5,12.5,3.5c4.8,0,8.7-1.1,11.7-3.3S-483.7,336-483.7,332.5z"/>
<path class="st0" d="M-453.9,335.1l1.6,5.5h0.3l14.1-39.4h5.8l-20.2,53.9c-1.2,3.2-2.8,5.8-4.7,8c-1.9,2.2-4.7,3.3-8.4,3.3
			c-0.6,0-1.3-0.1-2.2-0.2s-1.5-0.3-1.9-0.4l0.6-4.3c0.3,0.1,0.9,0.1,1.7,0.2c0.8,0.1,1.3,0.1,1.7,0.1c2.2,0,4-0.8,5.4-2.4
			c1.3-1.6,2.5-3.6,3.4-6.1l2.4-6.3l-18-45.9h5.7L-453.9,335.1z"/>
<path class="st0" d="M-419.5,301.2l0.5,8.1c1.5-2.8,3.5-5,6.1-6.6c2.5-1.6,5.5-2.3,9-2.3c5,0,8.9,1.5,11.5,4.6
			c2.6,3.1,4,7.9,4,14.4v28.3h-5.2v-28.3c0-5.3-1-9.1-3-11.3c-2-2.2-4.8-3.3-8.5-3.3c-3.7,0-6.6,0.9-8.9,2.7
			c-2.2,1.8-3.9,4.2-4.9,7.3v32.9h-5.2v-46.5H-419.5z"/>
<path class="st0" d="M-358,344.3c3.3,0,6.2-1,8.7-2.9c2.5-1.9,3.8-4.7,3.8-8.1h4.6l0.1,0.3c0.1,4.3-1.6,7.9-5.1,10.8
			c-3.5,2.9-7.5,4.3-12.2,4.3c-6.2,0-11-2.2-14.5-6.5c-3.5-4.4-5.2-9.9-5.2-16.7v-1.8c0-6.8,1.7-12.3,5.2-16.7
			c3.4-4.4,8.3-6.5,14.4-6.5c5,0,9.1,1.5,12.5,4.5c3.3,3,4.9,7,4.8,11.9l-0.1,0.3h-4.6c0-3.7-1.2-6.7-3.7-8.9
			c-2.4-2.2-5.4-3.3-8.9-3.3c-4.9,0-8.5,1.8-10.9,5.4c-2.4,3.6-3.6,8.1-3.6,13.4v1.8c0,5.5,1.2,10,3.6,13.6
			C-366.6,342.5-362.9,344.3-358,344.3z"/>
<path class="st0" d="M-295,319.6h-24.5v19.8h28.9v8.3H-330v-62.6h39v8.4h-28.6v17.7h24.5V319.6z"/>
<path class="st0" d="M-285.1,325.1c0-7.4,1.6-13.4,4.8-17.9c3.2-4.5,7.6-6.8,13.4-6.8c2.5,0,4.8,0.5,6.8,1.5c2,1,3.7,2.5,5.2,4.4
			v-25.6h10.4v67h-8.5l-1.2-5.9c-1.5,2.2-3.3,3.9-5.4,5c-2.1,1.2-4.6,1.7-7.3,1.7c-5.7,0-10.1-2.1-13.3-6.2
			c-3.2-4.2-4.8-9.6-4.8-16.4V325.1z M-274.6,326c0,4.3,0.8,7.7,2.5,10.3c1.6,2.5,4.3,3.8,7.8,3.8c2.2,0,4.1-0.5,5.6-1.4
			c1.5-0.9,2.8-2.3,3.8-4v-20.3c-1-1.7-2.2-3.1-3.8-4c-1.5-1-3.4-1.4-5.5-1.4c-3.6,0-6.2,1.5-7.9,4.5c-1.7,3-2.5,6.9-2.5,11.7V326z" />
</g>
</svg>