<?xml version="1.0" encoding="utf-8"?>
<!-- Generator: Adobe Illustrator 21.1.0, SVG Export Plug-In . SVG Version: 6.00 Build 0)  -->
<svg version="1.1" id="Ellipse_1_xA0_Image_1_" xmlns="http://www.w3.org/2000/svg" xmlns:xlink="http://www.w3.org/1999/xlink"
	 x="0px" y="0px" viewBox="0 0 350 350" enable-background="new 0 0 350 350" xml:space="preserve">
<g>
	<path fill="#FBF5E1" d="M25.1,72.9c3.1-1.9,6.2-3.7,9.3-5.6c0.6-0.3,1.1-0.4,1.7-0.1c2.9,1.6,5.8,3.2,8.7,4.9
		c0.5,0.3,0.8,0.6,0.8,1.2c-0.2,3.4,0.2,6.7,0.2,10c0,0.7-0.3,1.2-0.9,1.5C42,86.5,39,88.2,36.1,90c-0.5,0.3-0.8,0.2-1.3-0.1
		c-2.8-1.6-5.7-3.3-8.5-4.8c-0.8-0.4-1-0.9-1-1.7c0-2.5,0-5,0-7.4c0-0.4,0.2-0.9-0.2-1.2C25.1,74.1,25.1,73.5,25.1,72.9z"/>
	<path fill="#F6AB32" d="M46,197.9c-4.5-5.6-7.2-12.1-8.4-19.2c-0.4-2.6-0.5-5.2-0.5-7.9c0-17.8,0-35.6,0-53.4c0-3,1.5-4.5,4.5-4.5
		c5.6,0,11.3,0,16.9,0c1,0,1.2-0.3,1.2-1.2c0-6.6,0-13.3,0-19.9c0-2.4,0.9-3.3,3.2-3.3c34.4,0,68.7,0,103.1,0c1.2,0,1.6-0.3,1.5-1.5
		c-0.1-2.5,0-5,0-7.6c0-2.1,1-3,3.1-3c16.9,0,33.8,0,50.8,0c2.2,0,3,0.8,3,3.1c0,11.1,0,22.2,0,33.4c0,0.9,0.3,1.5,1.1,2
		c15.9,10.4,26.3,24.7,30.4,43.3c4.8,21.6,0.3,41.3-13.2,58.8c-0.6,0.8-0.5,1.1,0.1,1.8c4.6,4.5,9.2,9,13.7,13.6
		c0.6,0.6,0.9,0.6,1.5,0c1.7-1.7,3.4-3.4,5.1-5.1c1.2-1.2,2-1.2,3.3,0c2.8,2.8,5.7,5.7,8.5,8.5c13.8,13.8,27.6,27.6,41.4,41.4
		c6.3,6.3,7.3,15.5,2.5,22.6c-6,9-18.5,10.5-26.5,3.3c-0.4-0.3-0.7-0.7-1-1c-16.5-16.5-33-33-49.6-49.5c-1.6-1.6-1.6-2.2,0-3.7
		c1.6-1.6,3.3-3.3,4.9-4.9c0.5-0.5,0.6-0.8,0-1.4c-4.7-4.6-9.4-9.3-14-14c-0.6-0.6-0.9-0.4-1.4,0c-5.8,4.6-12.2,8.2-19.1,10.8
		c-9.1,3.4-18.6,4.9-28.2,4.2c-21.8-1.5-39.3-11.1-52.4-28.6c-0.6-0.8-1.1-1.1-2.1-1.1c-17,0-33.9,0-50.9,0c-3.9,0-7.8-0.6-11.6-1.7
		c-0.2-0.1-0.4-0.2-0.7-0.3c0.3-0.4,0.8-0.3,1.2-0.3c6.9,0.6,13.7,0.3,20.6,0.3c4.2,0,8.5,0.1,12.7,0c5.5-0.1,10.9,0,16.4-0.1
		c3.3-0.1,6.7,0.1,10.1,0.1c0.4,0,1.1,0.2,1.1-0.3c0-0.7-0.7-0.6-1.2-0.6c-0.4,0-0.9,0-1.3,0c-16,0-32,0-48,0
		c-0.7,0-1.5,0.3-2.1-0.5c0.5-0.6,1.3-0.4,1.9-0.4c10.1,0,20.2,0,30.4,0c5.9,0,11.8,0,17.8,0c1.8,0,1.8-0.1,1-1.6
		c-2.1-3.7-3.9-7.6-5.3-11.7c-2.3-6.6-3.6-13.4-3.8-20.4c-0.5-13.6,2.7-26.4,9.6-38.2c3-5.1,6.6-9.8,10.7-13.9
		c2.7-2.7,5.6-5.3,9-7.6c-0.8,0-1.3,0-1.9,0c-27.3,0-54.5,0-81.8,0c-1.8,0-3.5,0-5.3-0.2c-2-0.2-3.9,0.2-5.9,0.1
		c-3-0.2-6.1,0-9.1-0.1c-1.9-0.1-2.1,0.2-2.1,2.1c0,18.4-0.1,36.9,0.1,55.3c0.1,7.9,2.9,15,7.7,21.3c0.4,0.5,1,1,0.9,1.7
		c-0.4,0.5-1,0.4-1.5,0.4C47.2,197.3,46.5,197.4,46,197.9z"/>
	<path fill="#FEF9EB" d="M197.4,334.3c-6.6,0.2-13.2,0.2-19.9,0.5c-9.1,0.3-18.1,0.2-27.2,0.1c-3.6,0-7.2,0-10.8-0.2
		c-4.3-0.2-8.6-0.3-12.9-0.5c-4.1-0.2-8.2-0.4-12.3-0.7c-5.3-0.4-10.5-0.8-15.8-1.6c-3.6-0.5-7.2-1-10.6-2.2
		c-0.8-0.3-1.9-0.5-1.9-1.5c0-0.9,1.1-1.2,1.8-1.4c3.4-1.2,6.9-1.7,10.4-2.1c3.3-0.4,6.6-0.8,9.9-1.2c2.4-0.2,4.8-0.4,7.3-0.5
		c5.2-0.3,10.4-0.7,15.6-0.8c1.3,0,2.5-0.1,3.8-0.2c4.5-0.3,9.1-0.1,13.6-0.3c9.1-0.4,18.1-0.2,27.2-0.1c3.7,0,7.3,0,11,0.2
		c4.3,0.2,8.5,0.3,12.8,0.5c4.1,0.2,8.2,0.4,12.3,0.7c4,0.3,7.9,0.7,11.9,1.1c4.1,0.5,8.3,1,12.3,2c1.1,0.3,2.3,0.5,3.2,1.2
		c1.2,0.8,1.2,1.2-0.1,1.9c-1.6,1-3.5,1.3-5.3,1.6c-5,1-10,1.5-15,2c-4.5,0.4-8.9,0.8-13.4,0.9C202.8,333.9,200.1,334.1,197.4,334.3
		z"/>
	<path fill="#FCE6C3" d="M297,215.1c-0.2-5.1,4.4-10.2,10.2-10.2c5.6,0,10.3,4.8,10.2,10.5c-0.2,5.9-4.8,10-10.3,10
		C301.3,225.4,296.8,220.5,297,215.1z"/>
	<path fill="#F5A631" d="M46,197.9c-0.1-0.7,0.3-0.9,0.9-0.9c0.8,0,1.7,0,2.5,0c0.1,0,0.2,0,0.4,0c1.7,1.4,3.1,3.1,4.8,4.5
		c5.9,4.9,12.6,7.5,20.1,8.6c0.4,0.1,0.8,0,1.1,0.4c0.5,0.3,1,0.2,1.5,0.2c16.7,0,33.3,0,50,0c0.7,0,1.2,0,1.6,0.7
		c0.4,0.8,0.2,1-0.6,1c-1.9,0-3.8,0-5.8,0c-2.9,0-5.8,0.1-8.7,0c-3-0.1-6-0.2-9-0.1c-4.4,0.1-8.8,0-13.2,0.1
		c-4.6,0.1-9.3,0.1-13.9,0c-3.9,0-7.8,0.2-11.6-0.5c-1.5-0.2-2.8-1-4.3-1.5c-4.6-1.7-8.5-4.4-11.9-7.8c-1.4-1.4-3.1-2.6-3.9-4.5
		C46,198,46,197.9,46,197.9z"/>
	<path fill="#FCE6C3" d="M279.2,171.3c-0.9,0-1.6-0.8-1.7-1.8c0-0.9,0-1.8,0-2.6c0-0.6-0.2-0.9-0.8-0.8c-0.8,0-1.6,0-2.4,0
		c-1.2,0-2-0.7-2-1.7c0-1.1,0.6-1.6,2-1.7c1.1-0.1,2.4,0.5,3.1-0.3c0.6-0.7,0.1-2,0.2-3c0.1-1.2,0.9-2.3,1.7-2.2
		c0.9,0,1.6,0.9,1.6,2.2c0.1,3.3,0.1,3.3,3.3,3.4c1.2,0,2.2,0.7,2.2,1.6c0,0.9-1,1.7-2.2,1.8c0,0-0.1,0-0.1,0c-1,0.1-2.3-0.5-3,0.3
		c-0.6,0.7-0.2,2-0.2,3C280.9,170.5,280.3,171.3,279.2,171.3z"/>
	<path fill="#FCE6C3" d="M278.7,199.9c-3,1.7-5.8,3.3-8.5,4.9c-0.4,0.2-0.7,0.5-0.7-0.2c0-3.3,0-6.5,0-10
		C272.6,196.3,275.5,198,278.7,199.9z"/>
	<path fill="#FCE6C3" d="M62.3,27.6c-0.2,0.2-0.4,0.4-0.6,0.5c-1.6,0.9-2.8,2.1-3.6,3.7c-0.4,0.7-0.7,0.7-1.1,0
		c-0.9-1.5-2-2.7-3.6-3.6c-0.7-0.4-0.8-0.7,0-1.1c1.6-0.8,2.7-2.1,3.6-3.5c0.3-0.5,0.6-0.8,1.1,0c0.8,1.6,2.1,2.8,3.6,3.7
		C61.9,27.3,62,27.4,62.3,27.6z"/>
	<path fill="#FCE6C3" d="M71.5,61.8c-1.3,0-2.8-1.5-2.8-2.8c0-1.3,1.4-2.7,2.7-2.7c1.3,0,2.8,1.5,2.8,2.8
		C74.2,60.3,72.8,61.8,71.5,61.8z"/>
	<path fill="#FFF3E1" d="M46,198.1c3,3.5,6.2,6.6,10.1,9.1c1.8,1.2,3.8,2.2,5.7,3.2c-3.1-0.7-5.8-2.1-8.5-3.6
		c-2.5-1.4-4.8-3.1-6.4-5.6C46.4,200.2,46,199.2,46,198.1z"/>
	<path fill="#FBF5E1" d="M49.6,196.9c-0.1,0-0.1,0-0.2,0c-3-3.8-5.4-7.8-6.9-12.4c-1.3-4-2-8-2-12.2c0-18.2,0-36.3,0-54.5
		c0-1.6,0.1-1.7,1.7-1.7c6,0,12,0,18,0c28.9,0.2,57.7,0,86.6,0.1c0.3,0,0.5,0,1.1,0c-2.7,2-5,3.8-7.2,5.8
		c-11.8,10.9-19.1,24.2-21.8,40.1c-1.9,11.5-1,22.8,2.6,33.8c0.1,0.2,0.1,0.5,0.2,0.7c0,0.6-0.5,0.6-0.9,0.6
		c-0.4,0.1-0.8,0.1-1.2,0.1c-22.6,0-45.3,0-67.9,0C50.9,197.3,50.2,197.4,49.6,196.9z"/>
	<path fill="#FFFFFF" d="M254.3,173.7c0,36.9-29.9,66.8-67.1,66.6c-37.3-0.2-66.9-30.9-66.2-68.1c0.8-35.9,30.3-65.3,66.9-65.2
		C224.5,107.2,254.3,137,254.3,173.7z"/>
	<path fill="#FCE5C3" d="M220.9,112.2c-2.4-1.2-4.6-2.3-6.9-3.2c-7.1-2.9-14.4-4.5-22.1-5c-13.2-0.8-25.6,1.9-37.2,8.1
		c-1,0.5-2.1,0.8-3.2,0.8c-8,0-16.1,0-24.1,0c-6.3,0-12.6,0-18.9,0c-7.3,0-14.6,0-21.9,0c-4.9,0-9.9-0.2-14.8-0.1
		c-2.6,0-5.1-0.1-7.7,0.1c-0.8,0.1-1.1-0.2-1.1-1c0-6.3,0.1-12.6,0-19c0-1.2,0.6-1,1.4-1c33.2,0,66.4,0,99.6,0c1.4,0,2.8,0,4.2,0
		c1.8,0,2.7-0.9,2.7-2.7c0-2.8,0-5.5,0-8.3c0-0.8,0.1-1.1,1-1.1c16,0,32.1,0,48.1,0c0.5,0,1-0.1,1,0.8
		C220.9,91,220.9,101.5,220.9,112.2z"/>
	<path fill="#FFFFFF" d="M274.2,240.1c0.3,0.2,0.5,0.5,0.8,0.7c12.4,12.4,24.8,24.8,37.2,37.2c0.7,0.7,0.7,1,0,1.7
		c-6.2,6.2-12.4,12.4-18.6,18.6c-0.6,0.6-0.9,0.6-1.5,0c-12.5-12.6-25.1-25.1-37.6-37.7c-0.2-0.2-0.3-0.4-0.5-0.6
		c0.1-0.5,0.5-0.8,0.9-1.1c6-6,12-12,18-18C273.2,240.6,273.5,240,274.2,240.1z"/>
	<path fill="#FBE8C7" d="M49.6,196.9c23.6,0,47.2,0,70.8,0c0.4,0,0.9,0.1,1.2-0.3c1.7,4.5,3.6,8.9,6.1,13c0.3,0.5,0.4,0.9-0.4,0.8
		c-0.3,0-0.6,0-0.8,0c-16.2,0-32.3,0-48.5,0c-0.8,0-1.5,0-2.3,0c-10.2-1-18.7-5.2-25.6-12.8C50,197.4,49.8,197.2,49.6,196.9z"/>
	<path fill="#FFFFFF" d="M315.3,281.5c6.5,8.2,1.4,20.8-8.8,22.5c-3.7,0.6-7.1-0.1-10.3-2.1c-0.4-0.3-0.8-0.5-0.3-1
		C302.4,294.4,308.8,288,315.3,281.5z"/>
	<path fill="#FFFFFF" d="M249.3,255.5c-0.2-0.2-0.3-0.3-0.5-0.4c-1.3-1.3-2.6-2.6-3.9-3.9c-0.5-0.4-0.4-0.7,0-1.1
		c6.3-6.3,12.7-12.6,19-19c0.6-0.6,0.8-0.5,1.3,0c1.2,1.2,2.4,2.5,3.6,3.6c0.5,0.4,0.5,0.7,0,1.2c-6.4,6.3-12.7,12.7-19.1,19.1
		C249.7,255.2,249.5,255.3,249.3,255.5z"/>
	<path fill="#FFFFFF" d="M242.3,223.3c1.2,0.9,2.2,2,3.2,3c2.8,2.7,5.5,5.5,8.4,8.2c0.7,0.6,0.6,1,0,1.6c-1.4,1.3-2.7,2.6-4,4
		c-0.2,0.2-0.4,0.6-0.8,0.1c-3.9-4-8-7.8-11.8-11.9C238.7,226.5,240.4,224.8,242.3,223.3z"/>
	<path fill="#FCE6C2" d="M274.2,240.1c-0.4,0.3-0.7,0.6-1.1,1c-6,6-12.1,12.1-18.1,18.1c-0.3,0.3-0.7,0.6-1,0.9c0,0-0.1,0-0.1,0
		c-2.3-1.9-2.3-1.9-0.1-4.1c5.8-5.8,11.6-11.6,17.3-17.4c0.7-0.7,1.1-0.7,1.6,0C273.2,239.1,273.7,239.6,274.2,240.1z"/>
	<path fill="#FBD59A" d="M242.3,223.3c-1.6,1.8-3.3,3.5-5.1,5.1c-0.8-0.7-1.7-1.5-2.5-2.2c-0.4-0.3-0.3-0.6,0-0.9
		c1.6-1.3,3.1-2.8,4.4-4.4c0.3-0.4,0.5-0.3,0.8,0C240.7,221.7,241.5,222.5,242.3,223.3z"/>
	<path fill="#FFFFFF" d="M307.2,220.9c-3.1,0.2-5.9-2.4-5.9-5.8c0.1-3.2,2.6-5.9,5.8-5.8c3.3,0.1,5.8,2.2,5.9,5.9
		C313.2,218.2,310.3,221.3,307.2,220.9z"/>
	<path fill="#F6AB32" d="M240.6,173.7c0.1,28.5-22.8,52.9-52.9,52.9c-30.2,0-53.4-24.7-52.9-53.8c0.4-27.9,22.9-52.1,52.9-52.1
		C217.9,120.8,240.7,145.2,240.6,173.7z"/>
	<path fill="#FED49A" d="M197,85.6c6.2,0,12.4,0,18.6,0c1.4,0,2.2,0.6,2.2,1.6c0,1.1-0.9,1.7-2.3,1.7c-12.5,0-24.9,0-37.4,0
		c-1.4,0-2.2-0.6-2.2-1.6c0-1.1,0.8-1.7,2.3-1.7C184.4,85.6,190.7,85.6,197,85.6z"/>
	<path fill="#F6AB32" d="M301.8,280.1c0,0.7-0.2,1.3-0.8,1.6c-0.6,0.3-1.2,0.3-1.8-0.1c-0.3-0.2-0.6-0.5-0.9-0.8
		c-9.1-9.1-18.2-18.2-27.3-27.3c-0.3-0.3-0.6-0.6-0.8-0.9c-0.5-0.8-0.4-1.5,0.3-2.2c0.6-0.6,1.4-0.6,2.1-0.1
		c0.3,0.2,0.5,0.4,0.7,0.6c9.2,9.2,18.4,18.4,27.7,27.7C301.4,279,301.9,279.5,301.8,280.1z"/>
	<path fill="#F6AB32" d="M295.1,287.1c-0.1,0.5-0.2,1-0.8,1.3c-0.6,0.3-1.2,0.3-1.8,0c-0.2-0.1-0.4-0.3-0.6-0.5
		c-9.3-9.3-18.6-18.6-27.9-27.9c-0.4-0.4-0.8-0.9-0.8-1.5c0-1.2,1.3-2.1,2.4-1.5c0.4,0.2,0.8,0.6,1.1,0.9
		c9.2,9.2,18.3,18.3,27.5,27.5C294.6,285.8,295.1,286.3,295.1,287.1z"/>
	<path fill="#FFFFFF" d="M165.7,171.3c0-10.6,0-21.3,0-31.9c0-1,0.2-1.3,1.2-1.3c18.2,0,36.3,0,54.5,0c0.7,0,1.2,0.1,1.7,0.7
		c2.2,2.3,4.2,4.8,6,7.5c0.3,0.5,0.5,1,0.5,1.6c0,6,0,12.1,0,18.1c0,0.9-0.3,1.1-1.1,1c-4,0-8.1-0.1-12.1,0
		c-4.1,0.1-6.7,3.9-5.1,7.5c1,2.3,2.9,3.2,5.3,3.2c4,0,7.9,0,11.9,0c0.9,0,1.1,0.3,1.1,1.1c0,6.8,0,13.7,0,20.5
		c0,1.2-0.8,1.9-1.3,2.9c-1,1.9-2.4,2.4-4.5,2.4c-18.9-0.1-37.8-0.1-56.6,0c-1.2,0-1.5-0.2-1.5-1.5
		C165.8,192.5,165.7,181.9,165.7,171.3z"/>
	<path fill="#FBF5E1" d="M218.5,212.6c-6.5,5.3-14,8.6-22.2,10c-6.2,1.1-12.4,1-18.5-0.2c-0.4-0.1-0.7-0.2-1-0.3
		c-5.3-1.8-9.7-4.9-13.9-8.5c-5.6-4.7-9.8-10.5-12.9-17.1c-2.4-5-3.9-10.3-4.5-15.8c-0.2-2.2-0.5-4.4-0.4-6.7
		c0.5-12.5,4.5-23.6,12.8-33.1c1.2-1.3,2.4-2.6,3.6-3.8c0.3-0.3,0.6-0.8,1.2-0.6c0,3.4,0.1,6.9,0.1,10.3c0,3.6-0.1,7.3-0.1,10.9
		c0,4.9,0.1,9.7,0.1,14.6c0,5.3,0,10.6-0.1,15.9c0,5.2,0,10.5,0,15.7c0,1,0.1,2.1,0.2,3.1c0.4,0.7,0.4,1.5,0.4,2.3
		c0,2.8-0.3,2.6,2.7,2.6c9.8,0,19.6,0,29.5,0c7.1,0,14.2,0,21.3,0C217.3,211.9,218.2,211.6,218.5,212.6z"/>
	<path fill="#FAE6BF" d="M162.6,136.4c-4,3.6-7.4,7.7-10.1,12.3c-3.5,5.9-5.7,12.3-6.6,19c-0.6,4.2-0.6,8.4-0.1,12.6
		c1.1,9.6,4.6,18.2,10.5,25.9c4.3,5.6,9.6,9.9,15.7,13.4c1.6,0.9,3.3,1.4,4.8,2.4c-5.1-1-9.9-2.9-14.3-5.6
		c-13.1-7.9-21.2-19.4-23.7-34.5c-2.5-14.8,1.1-28.2,10.6-39.8c8.1-9.9,18.6-15.7,31.2-17.7c3.2-0.5,6.4-0.6,9.7-0.5
		c0.3,0,0.7-0.1,1,0.2c-0.3,0.3-0.6,0.4-1,0.4c-4.6-0.1-8.7,1.5-12.9,3.1c-4,1.5-7.7,3.8-11.1,6.3c-0.2,0.2-0.5,0.3-0.6,0.6
		c0.5,0.2,0.9,0.1,1.4,0.1c16.4,0,32.9,0,49.3,0c0.7,0,1.4,0,2.1,0.1c0.2,0.1,0.6,0.2,0.1,0.4c-0.2,0.1-0.5,0-0.8,0
		c-17.8,0-35.6,0-53.4,0C163.4,135.2,162.9,135.6,162.6,136.4z"/>
	<path fill="#FBF5E1" d="M218.5,134.8c-0.3,0.3-0.7,0.2-1,0.2c-17.4,0-34.9,0-52.3,0c-0.2,0-0.3,0-0.5-0.2
		c7.8-6,16.3-10.5,26.5-10.6c8,0.4,15.3,2.9,22.1,7C215.2,132.2,216.9,133.4,218.5,134.8z"/>
	<path fill="#FBEECF" d="M218.5,212.6c-0.4-0.5-1-0.3-1.5-0.3c-17.6,0-35.2,0-52.8,0c-1.1,0-1.6-0.2-1.5-1.4c0.1-1.3,0-2.6,0.1-4
		c0.6,0.6,1.3,0.6,2.1,0.6c19.1,0,38.2,0,57.3,0c0.4,0,0.9,0,1.7,0C222.2,209.5,220.4,211.1,218.5,212.6z"/>
	<path fill="#FFFEFD" d="M222.7,170.2c2,0,3.9,0,5.9,0c0.7,0,1,0.1,1,1c0,3.4,0.1,3.4-3.3,3.4c-2.8,0-5.6,0-8.4,0c-0.3,0-0.6,0-1,0
		c-1.9-0.1-3-0.8-2.9-2.2c0-1.4,1.1-2.1,3-2.1C219,170.1,220.8,170.2,222.7,170.2z"/>
	<path fill="#FBEFCF" d="M234.6,190c-0.4,1.5-1,3-1.9,4.3c0-1.9,0-3.9,0-5.8c0-3.1,0-6.1,0-9.2c0-1.6,0-1.6,1.7-1.5
		c0.4,0.5,0.4,1.1,0.4,1.7C234.7,183,234.9,186.5,234.6,190z"/>
	<path fill="#FBF5E1" d="M234.6,190c-0.4-0.4-0.2-0.8-0.2-1.2c0-3.7,0-7.3,0-11c3-0.2,3-0.2,2.6,2.8
		C236.4,183.7,235.8,186.9,234.6,190z"/>
	<path fill="#FBEECF" d="M234.3,160.2c-0.6,1-0.7,1.9,0.3,2.7c0.1,1.4,0.4,2.7-0.2,4.1c-1.7,0.1-1.7,0.1-1.7-1.5c0-4.1,0-8.2,0-12.6
		c0.8,1.4,1.3,2.6,1.7,3.9C234.3,157.8,234.7,159,234.3,160.2z"/>
	<path fill="#FBF5E1" d="M237.2,170.3c0.2,1.4,0.3,2.7,0,4.1c-0.8,0.3-1.6,0.1-2.4,0.1c-0.4,0-0.7-0.2-0.8-0.6
		c-0.1-0.3-0.1-0.6-0.1-0.9C234,170,233.6,170,237.2,170.3z"/>
	<path fill="#FBF5E1" d="M234.4,166.9c0.1-1.4-0.3-2.7,0.2-4.1c0.5,0.3,1.4-0.1,1.6,0.5c0.4,1,0.5,2.1,0.6,3.2
		c0,0.5-0.3,0.5-0.7,0.5C235.6,167,235,166.9,234.4,166.9z"/>
	<path fill="#FBEFCF" d="M237.2,170.3c-2.8,0-2.8,0-2.8,2.6c0,1.2,0.3,1.6,1.5,1.4c0.5-0.1,0.9,0,1.4,0c-1.4,0.4-2.7,0.1-4.1,0.1
		c-0.4,0-0.4-0.3-0.4-0.6c0-0.5,0-1,0-1.4c0-2.3,0-2.3,2.3-2.3C235.7,170.1,236.5,169.9,237.2,170.3z"/>
	<path fill="#FBF1D8" d="M234.3,160.2c-0.3-1.2-0.3-2.4,0-3.6c0.2,0.6,0.4,1.3,0.7,1.9C235.4,159.4,235.3,160,234.3,160.2z"/>
	<path fill="#FCE6C3" d="M195.8,179.4c-0.5,0-1,0-1.6,0c-0.9-0.1-1.5-0.6-1.6-1.6c-0.3-2.8,0.5-5.1,2.6-7.2c1.5-1.5,3.2-2.7,4.5-4.4
		c1.4-1.8,1.8-3.9,0.8-5.4c-1.1-1.8-3.6-2.8-5.7-2.2c-1,0.3-1.9,0.6-2.8,1c-1.4,0.6-2.3,0.4-3.1-0.9c-0.1-0.1-0.2-0.3-0.3-0.4
		c-1.6-2.4-1.5-3.1,1.1-4.3c4.3-2.1,8.7-2.4,13.1-0.2c5.4,2.7,6.9,9.5,3.3,14.3c-1.3,1.7-3,3-4.6,4.5c-1.5,1.4-2.5,3-2.7,5.2
		c-0.1,0.9-0.7,1.4-1.6,1.4C196.7,179.4,196.3,179.4,195.8,179.4z"/>
	<path fill="#FCE6C3" d="M195.8,190c-3,0-3.2-0.1-3.2-3.2c0-0.4,0-0.9,0-1.3c0.1-0.9,0.6-1.5,1.5-1.5c1,0,2.1,0,3.1,0
		c1,0,1.5,0.6,1.6,1.6c0,0.8,0,1.5,0,2.3c0,1.7-0.5,2.1-2.1,2.1C196.4,190,196.1,190,195.8,190z"/>
</g>
</svg>
